<svg xmlns="http://www.w3.org/2000/svg" width="400" height="225" viewBox="0 0 400 225">
  <defs>
    <linearGradient id="sky" x1="0" y1="0" x2="0" y2="1">
      <stop offset="0%" stop-color="#8fd8ff"/>
      <stop offset="100%" stop-color="#d8f3ff"/>
    </linearGradient>
    <linearGradient id="lava" x1="0" y1="0" x2="0" y2="1">
      <stop offset="0%" stop-color="#ffb02e"/>
      <stop offset="100%" stop-color="#ff6a13"/>
    </linearGradient>
    <filter id="glow" x="-50%" y="-50%" width="200%" height="200%">
      <feGaussianBlur stdDeviation="6"/>
    </filter>
  </defs>

  <rect width="400" height="225" fill="url(#sky)"/>

  <circle cx="314" cy="34" r="13" fill="#fff0a8" opacity="0.45" filter="url(#glow)"/>
  <circle cx="314" cy="34" r="10" fill="#ffe48c"/>

  <g fill="#f7fbff" opacity="0.95">
    <ellipse cx="34" cy="26" rx="10" ry="4"/>
    <ellipse cx="52" cy="22" rx="12" ry="4"/>
    <ellipse cx="66" cy="25" rx="10" ry="4"/>
    <ellipse cx="121" cy="18" rx="8" ry="3"/>
    <ellipse cx="136" cy="16" rx="10" ry="3"/>
    <ellipse cx="350" cy="30" rx="12" ry="4"/>
    <ellipse cx="368" cy="33" rx="15" ry="5"/>
  </g>

  <g opacity="0.32">
    <path d="M0 97 C38 83 85 83 128 94 C170 105 212 107 258 95 C303 83 350 84 400 95 L400 128 L0 128 Z" fill="#8ab4b8"/>
  </g>
  <g opacity="0.8">
    <path d="M0 112 C37 100 79 99 123 110 C168 121 209 123 255 111 C302 99 347 100 400 111 L400 151 L0 151 Z" fill="#3e8d67"/>
  </g>
  <g>
    <path d="M0 153 C42 141 80 141 119 151 C160 162 206 164 247 153 C287 142 335 142 400 154 L400 183 L0 183 Z" fill="#73cb4e"/>
    <path d="M0 168 C43 159 83 159 121 168 C163 178 206 180 248 170 C288 161 336 161 400 171 L400 225 L0 225 Z" fill="url(#lava)"/>
  </g>

  <g fill="#5c5c5c" opacity="0.7">
    <ellipse cx="57" cy="165" rx="7" ry="5"/>
    <ellipse cx="72" cy="172" rx="6" ry="4"/>
    <ellipse cx="186" cy="163" rx="7" ry="5"/>
    <ellipse cx="194" cy="169" rx="5" ry="4"/>
    <ellipse cx="22" cy="198" rx="11" ry="5"/>
    <ellipse cx="44" cy="205" rx="9" ry="5"/>
    <ellipse cx="83" cy="203" rx="14" ry="6"/>
    <ellipse cx="125" cy="198" rx="10" ry="4"/>
    <ellipse cx="160" cy="203" rx="11" ry="5"/>
    <ellipse cx="229" cy="199" rx="12" ry="5"/>
    <ellipse cx="279" cy="205" rx="14" ry="6"/>
    <ellipse cx="344" cy="201" rx="10" ry="5"/>
    <ellipse cx="387" cy="204" rx="12" ry="5"/>
  </g>

  <g>
    <path d="M72 83 C91 75 112 75 130 81 C128 89 122 96 108 102 C93 108 79 106 74 95 Z" fill="#f5f5f5" stroke="#bfbfbf" stroke-width="1"/>
    <path d="M71 80 C90 72 114 72 131 78 L129 82 C113 77 90 77 72 84 Z" fill="#69c95f"/>

    <path d="M159 80 C171 74 184 74 195 79 C193 87 188 91 178 94 C168 97 160 95 157 88 Z" fill="#f5f5f5" stroke="#bfbfbf" stroke-width="1"/>
    <path d="M158 77 C171 72 185 71 196 76 L194 80 C183 76 171 76 159 81 Z" fill="#69c95f"/>

    <path d="M230 72 C236 69 243 69 249 71 C248 76 245 79 240 80 C234 81 229 79 228 76 Z" fill="#f5f5f5" stroke="#bfbfbf" stroke-width="1"/>
    <path d="M230 69 C236 67 243 66 250 68 L249 71 C243 69 236 69 230 72 Z" fill="#69c95f"/>

    <path d="M271 84 C292 77 321 77 343 82 C341 91 334 97 315 101 C295 105 278 104 270 97 Z" fill="#f5f5f5" stroke="#bfbfbf" stroke-width="1"/>
    <path d="M271 81 C292 75 322 75 344 79 L342 83 C320 80 293 80 272 85 Z" fill="#69c95f"/>

    <path d="M48 117 C69 108 96 108 118 117 C116 128 109 139 91 145 C70 151 53 148 46 137 Z" fill="#f5f5f5" stroke="#bfbfbf" stroke-width="1"/>
    <path d="M47 112 C68 104 97 104 119 113 L117 118 C96 111 69 111 48 119 Z" fill="#69c95f"/>

    <path d="M155 137 C183 130 228 130 257 136 C255 144 246 150 223 153 C196 156 168 154 155 147 Z" fill="#f5f5f5" stroke="#bfbfbf" stroke-width="1"/>
    <path d="M156 134 C184 127 228 127 258 133 L256 137 C227 132 184 132 156 138 Z" fill="#69c95f"/>
  </g>

  <g transform="translate(265 128)">
    <ellipse cx="0" cy="0" rx="24" ry="21" fill="#ffd9b1"/>
    <ellipse cx="-24" cy="-2" rx="9" ry="10" fill="#ffd9b1"/>
    <ellipse cx="24" cy="-2" rx="9" ry="10" fill="#ffd9b1"/>
    <ellipse cx="-11" cy="28" rx="10" ry="22" fill="#ffd9b1" transform="rotate(16 -11 28)"/>
    <ellipse cx="11" cy="28" rx="10" ry="22" fill="#ffd9b1" transform="rotate(-16 11 28)"/>
    <path d="M-20 -20 C-13 -33 14 -33 22 -20 L20 -9 C9 -13 -8 -13 -19 -9 Z" fill="#5fb85c"/>
    <rect x="-8" y="-22" width="16" height="5" rx="2" fill="#5fb85c"/>
    <circle cx="18" cy="-24" r="5" fill="#5fb85c"/>
    <rect x="-15" y="-5" width="12" height="10" rx="2" fill="#2e3640"/>
    <rect x="3" y="-5" width="12" height="10" rx="2" fill="#2e3640"/>
    <rect x="-3" y="-1" width="6" height="2" fill="#2e3640"/>
    <path d="M-4 10 C-1 13 3 13 6 10" fill="none" stroke="#7d4d36" stroke-width="1.5" stroke-linecap="round"/>
  </g>
</svg>
